<mxfile host="app.diagrams.net" modified="2020-10-23T20:05:23.028Z" agent="5.0 (Windows)" etag="98tfkwW6H6mDkoVxVRNe" version="13.8.1" type="github">
  <diagram name="Page-1" id="929967ad-93f9-6ef4-fab6-5d389245f69c">
    <mxGraphModel dx="3175.5" dy="791" grid="1" gridSize="10" guides="1" tooltips="1" connect="1" arrows="1" fold="1" page="1" pageScale="1.5" pageWidth="1169" pageHeight="826" background="none" math="0" shadow="0">
      <root>
        <mxCell id="0" style=";html=1;" />
        <mxCell id="1" style=";html=1;" parent="0" />
        <mxCell id="sBj-F3kH6cSO4vfEOLG5-85" value="" style="html=1;noLabel=1;fontColor=none;labelBackgroundColor=#66B2FF;labelBorderColor=none;" vertex="1" parent="1">
          <mxGeometry x="600" y="490" width="220" height="400" as="geometry" />
        </mxCell>
        <mxCell id="1672d66443f91eb5-23" value="DSUI Packages" style="text;strokeColor=none;fillColor=none;html=1;fontSize=24;fontStyle=1;verticalAlign=middle;align=center;" parent="1" vertex="1">
          <mxGeometry x="-130" y="430" width="1510" height="40" as="geometry" />
        </mxCell>
        <mxCell id="sBj-F3kH6cSO4vfEOLG5-1" value="&lt;div&gt;User&lt;/div&gt;&lt;div&gt;&lt;br&gt;&lt;/div&gt;" style="shape=umlActor;verticalLabelPosition=bottom;verticalAlign=top;html=1;outlineConnect=0;" vertex="1" parent="1">
          <mxGeometry x="450" y="530" width="30" height="60" as="geometry" />
        </mxCell>
        <mxCell id="sBj-F3kH6cSO4vfEOLG5-65" style="edgeStyle=orthogonalEdgeStyle;rounded=0;orthogonalLoop=1;jettySize=auto;html=1;" edge="1" parent="1" source="sBj-F3kH6cSO4vfEOLG5-2">
          <mxGeometry relative="1" as="geometry">
            <mxPoint x="465" y="620" as="targetPoint" />
          </mxGeometry>
        </mxCell>
        <mxCell id="sBj-F3kH6cSO4vfEOLG5-2" value="&lt;div&gt;Admin&lt;/div&gt;&lt;div&gt;&lt;br&gt;&lt;/div&gt;" style="shape=umlActor;verticalLabelPosition=bottom;verticalAlign=top;html=1;outlineConnect=0;" vertex="1" parent="1">
          <mxGeometry x="450" y="675.01" width="30" height="60" as="geometry" />
        </mxCell>
        <mxCell id="sBj-F3kH6cSO4vfEOLG5-6" value="System" style="text;html=1;strokeColor=none;fillColor=none;align=center;verticalAlign=middle;whiteSpace=wrap;rounded=0;" vertex="1" parent="1">
          <mxGeometry x="770" y="500" width="40" height="20" as="geometry" />
        </mxCell>
        <mxCell id="sBj-F3kH6cSO4vfEOLG5-7" value="Pages " style="shape=folder;fontStyle=1;spacingTop=10;tabWidth=40;tabHeight=14;tabPosition=left;html=1;" vertex="1" parent="1">
          <mxGeometry x="620" y="523.33" width="100" height="73.34" as="geometry" />
        </mxCell>
        <mxCell id="sBj-F3kH6cSO4vfEOLG5-12" value="PAGE/CONTENT&lt;br&gt;MANAGER" style="shape=folder;fontStyle=1;spacingTop=10;tabWidth=40;tabHeight=14;tabPosition=left;html=1;" vertex="1" parent="1">
          <mxGeometry x="620" y="700.0000000000001" width="100" height="74.41" as="geometry" />
        </mxCell>
        <mxCell id="sBj-F3kH6cSO4vfEOLG5-14" value="APP SETTINGS" style="shape=folder;fontStyle=1;spacingTop=10;tabWidth=40;tabHeight=14;tabPosition=left;html=1;" vertex="1" parent="1">
          <mxGeometry x="620" y="620.0000000000001" width="100" height="68.57" as="geometry" />
        </mxCell>
        <mxCell id="sBj-F3kH6cSO4vfEOLG5-15" value="THEMING" style="shape=folder;fontStyle=1;spacingTop=10;tabWidth=40;tabHeight=14;tabPosition=left;html=1;" vertex="1" parent="1">
          <mxGeometry x="620" y="790" width="100" height="71.43" as="geometry" />
        </mxCell>
        <mxCell id="sBj-F3kH6cSO4vfEOLG5-81" value="" style="endArrow=classic;html=1;entryX=0;entryY=0;entryDx=0;entryDy=42.715;entryPerimeter=0;" edge="1" parent="1" target="sBj-F3kH6cSO4vfEOLG5-15">
          <mxGeometry width="50" height="50" relative="1" as="geometry">
            <mxPoint x="490" y="690" as="sourcePoint" />
            <mxPoint x="770" y="720" as="targetPoint" />
          </mxGeometry>
        </mxCell>
        <mxCell id="sBj-F3kH6cSO4vfEOLG5-82" value="" style="endArrow=classic;html=1;entryX=0;entryY=0;entryDx=0;entryDy=44.205;entryPerimeter=0;" edge="1" parent="1" target="sBj-F3kH6cSO4vfEOLG5-12">
          <mxGeometry width="50" height="50" relative="1" as="geometry">
            <mxPoint x="490" y="690" as="sourcePoint" />
            <mxPoint x="620" y="814.7149999999999" as="targetPoint" />
          </mxGeometry>
        </mxCell>
        <mxCell id="sBj-F3kH6cSO4vfEOLG5-83" value="" style="endArrow=classic;html=1;entryX=0;entryY=0;entryDx=0;entryDy=41.285;entryPerimeter=0;" edge="1" parent="1" target="sBj-F3kH6cSO4vfEOLG5-14">
          <mxGeometry width="50" height="50" relative="1" as="geometry">
            <mxPoint x="490" y="690" as="sourcePoint" />
            <mxPoint x="630" y="824.7149999999999" as="targetPoint" />
          </mxGeometry>
        </mxCell>
        <mxCell id="sBj-F3kH6cSO4vfEOLG5-84" value="" style="endArrow=classic;html=1;entryX=0;entryY=0;entryDx=0;entryDy=43.67;entryPerimeter=0;" edge="1" parent="1" target="sBj-F3kH6cSO4vfEOLG5-7">
          <mxGeometry width="50" height="50" relative="1" as="geometry">
            <mxPoint x="490" y="540" as="sourcePoint" />
            <mxPoint x="770" y="700" as="targetPoint" />
          </mxGeometry>
        </mxCell>
      </root>
    </mxGraphModel>
  </diagram>
</mxfile>
